<mxfile host="65bd71144e">
    <diagram id="fXK-ix2XF-QBktneF0PT" name="Page-1">
        <mxGraphModel dx="3650" dy="1609" grid="1" gridSize="10" guides="1" tooltips="1" connect="1" arrows="1" fold="1" page="1" pageScale="1" pageWidth="850" pageHeight="1100" math="0" shadow="0">
            <root>
                <mxCell id="0"/>
                <mxCell id="1" parent="0"/>
                <mxCell id="2" value="&lt;div&gt;call for GET&lt;/div&gt;&lt;div&gt;food/search&lt;/div&gt;" style="rounded=1;whiteSpace=wrap;html=1;absoluteArcSize=1;arcSize=14;strokeWidth=2;" vertex="1" parent="1">
                    <mxGeometry x="203" y="120" width="126" height="60" as="geometry"/>
                </mxCell>
                <mxCell id="3" style="edgeStyle=orthogonalEdgeStyle;rounded=0;orthogonalLoop=1;jettySize=auto;html=1;exitX=1;exitY=0.5;exitDx=0;exitDy=0;exitPerimeter=0;" edge="1" parent="1" source="5" target="7">
                    <mxGeometry relative="1" as="geometry"/>
                </mxCell>
                <mxCell id="4" value="no" style="edgeLabel;html=1;align=center;verticalAlign=middle;resizable=0;points=[];" vertex="1" connectable="0" parent="3">
                    <mxGeometry x="0.081" y="1" relative="1" as="geometry">
                        <mxPoint x="-2" y="1" as="offset"/>
                    </mxGeometry>
                </mxCell>
                <mxCell id="5" value="&lt;div&gt;is there a name&lt;/div&gt;" style="strokeWidth=2;html=1;shape=mxgraph.flowchart.decision;whiteSpace=wrap;" vertex="1" parent="1">
                    <mxGeometry x="196" y="230" width="140" height="80" as="geometry"/>
                </mxCell>
                <mxCell id="6" style="edgeStyle=orthogonalEdgeStyle;rounded=0;orthogonalLoop=1;jettySize=auto;html=1;entryX=0.5;entryY=0;entryDx=0;entryDy=0;entryPerimeter=0;" edge="1" parent="1" source="2" target="5">
                    <mxGeometry relative="1" as="geometry">
                        <mxPoint x="128" y="240" as="sourcePoint"/>
                    </mxGeometry>
                </mxCell>
                <mxCell id="7" value="Bad request" style="strokeWidth=2;html=1;shape=mxgraph.flowchart.terminator;whiteSpace=wrap;" vertex="1" parent="1">
                    <mxGeometry x="396" y="240" width="100" height="60" as="geometry"/>
                </mxCell>
                <mxCell id="8" style="edgeStyle=orthogonalEdgeStyle;rounded=0;orthogonalLoop=1;jettySize=auto;html=1;entryX=1;entryY=0.5;entryDx=0;entryDy=0;entryPerimeter=0;" edge="1" parent="1" source="5" target="10">
                    <mxGeometry relative="1" as="geometry">
                        <mxPoint x="276" y="345" as="targetPoint"/>
                    </mxGeometry>
                </mxCell>
                <mxCell id="9" value="yes" style="edgeLabel;html=1;align=center;verticalAlign=middle;resizable=0;points=[];" vertex="1" connectable="0" parent="8">
                    <mxGeometry x="-0.0476" y="1" relative="1" as="geometry">
                        <mxPoint as="offset"/>
                    </mxGeometry>
                </mxCell>
                <mxCell id="10" value="call to retrieve the food data" style="strokeWidth=2;html=1;shape=mxgraph.flowchart.database;whiteSpace=wrap;" vertex="1" parent="1">
                    <mxGeometry x="56" y="225" width="90" height="90" as="geometry"/>
                </mxCell>
                <mxCell id="11" style="edgeStyle=orthogonalEdgeStyle;rounded=0;orthogonalLoop=1;jettySize=auto;html=1;exitX=0.5;exitY=1;exitDx=0;exitDy=0;exitPerimeter=0;entryX=0.5;entryY=0;entryDx=0;entryDy=0;entryPerimeter=0;" edge="1" parent="1" source="10" target="12">
                    <mxGeometry relative="1" as="geometry">
                        <mxPoint x="276" y="485" as="targetPoint"/>
                    </mxGeometry>
                </mxCell>
                <mxCell id="12" value="Food data returned" style="strokeWidth=2;html=1;shape=mxgraph.flowchart.terminator;whiteSpace=wrap;" vertex="1" parent="1">
                    <mxGeometry x="51" y="360" width="100" height="60" as="geometry"/>
                </mxCell>
                <mxCell id="13" value="&lt;b&gt;&lt;font style=&quot;font-size: 18px;&quot;&gt;Food Search Flow&lt;/font&gt;&lt;/b&gt;" style="text;html=1;strokeColor=none;fillColor=none;align=center;verticalAlign=middle;whiteSpace=wrap;rounded=0;" vertex="1" parent="1">
                    <mxGeometry x="186" y="60" width="160" height="30" as="geometry"/>
                </mxCell>
                <mxCell id="37" style="edgeStyle=orthogonalEdgeStyle;rounded=0;orthogonalLoop=1;jettySize=auto;html=1;" edge="1" parent="1" source="38" target="39">
                    <mxGeometry relative="1" as="geometry"/>
                </mxCell>
                <mxCell id="38" value="&lt;div&gt;call for POST&lt;/div&gt;&lt;div&gt;meals/create&lt;br&gt;&lt;/div&gt;" style="rounded=1;whiteSpace=wrap;html=1;absoluteArcSize=1;arcSize=14;strokeWidth=2;" vertex="1" parent="1">
                    <mxGeometry x="872" y="95" width="126" height="60" as="geometry"/>
                </mxCell>
                <mxCell id="39" value="&lt;div&gt;is logged&lt;/div&gt;&lt;div&gt;in&lt;br&gt;&lt;/div&gt;" style="strokeWidth=2;html=1;shape=mxgraph.flowchart.decision;whiteSpace=wrap;" vertex="1" parent="1">
                    <mxGeometry x="900" y="200" width="70" height="70" as="geometry"/>
                </mxCell>
                <mxCell id="40" style="edgeStyle=orthogonalEdgeStyle;rounded=0;orthogonalLoop=1;jettySize=auto;html=1;exitX=1;exitY=0.5;exitDx=0;exitDy=0;exitPerimeter=0;" edge="1" parent="1" source="42" target="48">
                    <mxGeometry relative="1" as="geometry"/>
                </mxCell>
                <mxCell id="41" value="no" style="edgeLabel;html=1;align=center;verticalAlign=middle;resizable=0;points=[];" vertex="1" connectable="0" parent="40">
                    <mxGeometry x="0.081" y="1" relative="1" as="geometry">
                        <mxPoint x="-2" y="1" as="offset"/>
                    </mxGeometry>
                </mxCell>
                <mxCell id="42" value="&lt;div&gt;are body params &lt;br&gt;&lt;/div&gt;&lt;div&gt;valid?&lt;br&gt;&lt;/div&gt;" style="strokeWidth=2;html=1;shape=mxgraph.flowchart.decision;whiteSpace=wrap;" vertex="1" parent="1">
                    <mxGeometry x="1022" y="195" width="140" height="80" as="geometry"/>
                </mxCell>
                <mxCell id="43" style="edgeStyle=orthogonalEdgeStyle;rounded=0;orthogonalLoop=1;jettySize=auto;html=1;entryX=0;entryY=0.5;entryDx=0;entryDy=0;entryPerimeter=0;" edge="1" parent="1" source="39" target="42">
                    <mxGeometry relative="1" as="geometry"/>
                </mxCell>
                <mxCell id="44" value="yes" style="edgeLabel;html=1;align=center;verticalAlign=middle;resizable=0;points=[];" vertex="1" connectable="0" parent="43">
                    <mxGeometry x="-0.1221" relative="1" as="geometry">
                        <mxPoint as="offset"/>
                    </mxGeometry>
                </mxCell>
                <mxCell id="45" value="Unauthorized" style="strokeWidth=2;html=1;shape=mxgraph.flowchart.terminator;whiteSpace=wrap;" vertex="1" parent="1">
                    <mxGeometry x="742" y="205" width="100" height="60" as="geometry"/>
                </mxCell>
                <mxCell id="46" style="edgeStyle=orthogonalEdgeStyle;rounded=0;orthogonalLoop=1;jettySize=auto;html=1;" edge="1" parent="1" source="39" target="45">
                    <mxGeometry relative="1" as="geometry"/>
                </mxCell>
                <mxCell id="47" value="no" style="edgeLabel;html=1;align=center;verticalAlign=middle;resizable=0;points=[];" vertex="1" connectable="0" parent="46">
                    <mxGeometry x="-0.0116" y="2" relative="1" as="geometry">
                        <mxPoint as="offset"/>
                    </mxGeometry>
                </mxCell>
                <mxCell id="48" value="Bad request" style="strokeWidth=2;html=1;shape=mxgraph.flowchart.terminator;whiteSpace=wrap;" vertex="1" parent="1">
                    <mxGeometry x="1212" y="205" width="100" height="60" as="geometry"/>
                </mxCell>
                <mxCell id="49" style="edgeStyle=orthogonalEdgeStyle;rounded=0;orthogonalLoop=1;jettySize=auto;html=1;entryX=0.5;entryY=0;entryDx=0;entryDy=0;entryPerimeter=0;" edge="1" parent="1" source="42" target="51">
                    <mxGeometry relative="1" as="geometry">
                        <mxPoint x="1068" y="345" as="targetPoint"/>
                    </mxGeometry>
                </mxCell>
                <mxCell id="50" value="yes" style="edgeLabel;html=1;align=center;verticalAlign=middle;resizable=0;points=[];" vertex="1" connectable="0" parent="49">
                    <mxGeometry x="-0.0476" y="1" relative="1" as="geometry">
                        <mxPoint as="offset"/>
                    </mxGeometry>
                </mxCell>
                <mxCell id="51" value="tries to create meal" style="strokeWidth=2;html=1;shape=mxgraph.flowchart.database;whiteSpace=wrap;" vertex="1" parent="1">
                    <mxGeometry x="1047" y="345" width="90" height="90" as="geometry"/>
                </mxCell>
                <mxCell id="52" style="edgeStyle=orthogonalEdgeStyle;rounded=0;orthogonalLoop=1;jettySize=auto;html=1;entryX=0;entryY=0.5;entryDx=0;entryDy=0;entryPerimeter=0;" edge="1" parent="1" source="56" target="59">
                    <mxGeometry relative="1" as="geometry">
                        <mxPoint x="1068" y="595" as="targetPoint"/>
                    </mxGeometry>
                </mxCell>
                <mxCell id="53" value="no" style="edgeLabel;html=1;align=center;verticalAlign=middle;resizable=0;points=[];" vertex="1" connectable="0" parent="52">
                    <mxGeometry x="-0.1254" y="2" relative="1" as="geometry">
                        <mxPoint as="offset"/>
                    </mxGeometry>
                </mxCell>
                <mxCell id="54" style="edgeStyle=orthogonalEdgeStyle;rounded=0;orthogonalLoop=1;jettySize=auto;html=1;exitX=0;exitY=0.5;exitDx=0;exitDy=0;exitPerimeter=0;" edge="1" parent="1" source="56" target="58">
                    <mxGeometry relative="1" as="geometry"/>
                </mxCell>
                <mxCell id="55" value="yes" style="edgeLabel;html=1;align=center;verticalAlign=middle;resizable=0;points=[];" vertex="1" connectable="0" parent="54">
                    <mxGeometry x="-0.1344" y="2" relative="1" as="geometry">
                        <mxPoint as="offset"/>
                    </mxGeometry>
                </mxCell>
                <mxCell id="56" value="unique violated" style="strokeWidth=2;html=1;shape=mxgraph.flowchart.decision;whiteSpace=wrap;" vertex="1" parent="1">
                    <mxGeometry x="1052" y="480" width="80" height="70" as="geometry"/>
                </mxCell>
                <mxCell id="57" style="edgeStyle=orthogonalEdgeStyle;rounded=0;orthogonalLoop=1;jettySize=auto;html=1;exitX=0.5;exitY=1;exitDx=0;exitDy=0;exitPerimeter=0;entryX=0.5;entryY=0;entryDx=0;entryDy=0;entryPerimeter=0;" edge="1" parent="1" source="51" target="56">
                    <mxGeometry relative="1" as="geometry"/>
                </mxCell>
                <mxCell id="58" value="Meal is not created" style="strokeWidth=2;html=1;shape=mxgraph.flowchart.terminator;whiteSpace=wrap;" vertex="1" parent="1">
                    <mxGeometry x="892" y="485" width="100" height="60" as="geometry"/>
                </mxCell>
                <mxCell id="59" value="Meal created" style="strokeWidth=2;html=1;shape=mxgraph.flowchart.terminator;whiteSpace=wrap;" vertex="1" parent="1">
                    <mxGeometry x="1168" y="490" width="100" height="60" as="geometry"/>
                </mxCell>
                <mxCell id="60" value="&lt;span style=&quot;font-size: 18px;&quot;&gt;&lt;b&gt;Create Meal Flow&lt;/b&gt;&lt;/span&gt;" style="text;html=1;strokeColor=none;fillColor=none;align=center;verticalAlign=middle;whiteSpace=wrap;rounded=0;" vertex="1" parent="1">
                    <mxGeometry x="855" y="35" width="160" height="30" as="geometry"/>
                </mxCell>
                <mxCell id="61" style="edgeStyle=orthogonalEdgeStyle;rounded=0;orthogonalLoop=1;jettySize=auto;html=1;" edge="1" parent="1" source="62" target="63">
                    <mxGeometry relative="1" as="geometry"/>
                </mxCell>
                <mxCell id="62" value="&lt;div&gt;call for POST&lt;/div&gt;&lt;div&gt;meals/addFood&lt;br&gt;&lt;/div&gt;" style="rounded=1;whiteSpace=wrap;html=1;absoluteArcSize=1;arcSize=14;strokeWidth=2;" vertex="1" parent="1">
                    <mxGeometry x="1707" y="110" width="126" height="60" as="geometry"/>
                </mxCell>
                <mxCell id="63" value="&lt;div&gt;is logged&lt;/div&gt;&lt;div&gt;in&lt;br&gt;&lt;/div&gt;" style="strokeWidth=2;html=1;shape=mxgraph.flowchart.decision;whiteSpace=wrap;" vertex="1" parent="1">
                    <mxGeometry x="1735" y="200" width="70" height="70" as="geometry"/>
                </mxCell>
                <mxCell id="64" style="edgeStyle=orthogonalEdgeStyle;rounded=0;orthogonalLoop=1;jettySize=auto;html=1;exitX=1;exitY=0.5;exitDx=0;exitDy=0;exitPerimeter=0;" edge="1" parent="1" source="66" target="72">
                    <mxGeometry relative="1" as="geometry"/>
                </mxCell>
                <mxCell id="65" value="no" style="edgeLabel;html=1;align=center;verticalAlign=middle;resizable=0;points=[];" vertex="1" connectable="0" parent="64">
                    <mxGeometry x="0.081" y="1" relative="1" as="geometry">
                        <mxPoint x="-2" y="1" as="offset"/>
                    </mxGeometry>
                </mxCell>
                <mxCell id="66" value="&lt;div&gt;are body params &lt;br&gt;&lt;/div&gt;&lt;div&gt;valid?&lt;br&gt;&lt;/div&gt;" style="strokeWidth=2;html=1;shape=mxgraph.flowchart.decision;whiteSpace=wrap;" vertex="1" parent="1">
                    <mxGeometry x="1858" y="195" width="140" height="80" as="geometry"/>
                </mxCell>
                <mxCell id="67" style="edgeStyle=orthogonalEdgeStyle;rounded=0;orthogonalLoop=1;jettySize=auto;html=1;entryX=0;entryY=0.5;entryDx=0;entryDy=0;entryPerimeter=0;" edge="1" parent="1" source="63" target="66">
                    <mxGeometry relative="1" as="geometry"/>
                </mxCell>
                <mxCell id="68" value="yes" style="edgeLabel;html=1;align=center;verticalAlign=middle;resizable=0;points=[];" vertex="1" connectable="0" parent="67">
                    <mxGeometry x="-0.1221" relative="1" as="geometry">
                        <mxPoint as="offset"/>
                    </mxGeometry>
                </mxCell>
                <mxCell id="69" value="Unauthorized" style="strokeWidth=2;html=1;shape=mxgraph.flowchart.terminator;whiteSpace=wrap;" vertex="1" parent="1">
                    <mxGeometry x="1578" y="205" width="100" height="60" as="geometry"/>
                </mxCell>
                <mxCell id="70" style="edgeStyle=orthogonalEdgeStyle;rounded=0;orthogonalLoop=1;jettySize=auto;html=1;" edge="1" parent="1" source="63" target="69">
                    <mxGeometry relative="1" as="geometry"/>
                </mxCell>
                <mxCell id="71" value="no" style="edgeLabel;html=1;align=center;verticalAlign=middle;resizable=0;points=[];" vertex="1" connectable="0" parent="70">
                    <mxGeometry x="-0.0116" y="2" relative="1" as="geometry">
                        <mxPoint as="offset"/>
                    </mxGeometry>
                </mxCell>
                <mxCell id="72" value="Bad request" style="strokeWidth=2;html=1;shape=mxgraph.flowchart.terminator;whiteSpace=wrap;" vertex="1" parent="1">
                    <mxGeometry x="2048" y="205" width="100" height="60" as="geometry"/>
                </mxCell>
                <mxCell id="73" style="edgeStyle=orthogonalEdgeStyle;rounded=0;orthogonalLoop=1;jettySize=auto;html=1;exitX=0;exitY=0.5;exitDx=0;exitDy=0;exitPerimeter=0;" edge="1" parent="1" source="75" target="81">
                    <mxGeometry relative="1" as="geometry"/>
                </mxCell>
                <mxCell id="74" value="yes" style="edgeLabel;html=1;align=center;verticalAlign=middle;resizable=0;points=[];" vertex="1" connectable="0" parent="73">
                    <mxGeometry x="-0.0381" y="2" relative="1" as="geometry">
                        <mxPoint x="-2" y="-4" as="offset"/>
                    </mxGeometry>
                </mxCell>
                <mxCell id="75" value="is unit with specified abbrev" style="strokeWidth=2;html=1;shape=mxgraph.flowchart.decision;whiteSpace=wrap;" vertex="1" parent="1">
                    <mxGeometry x="1878" y="325" width="100" height="100" as="geometry"/>
                </mxCell>
                <mxCell id="76" style="edgeStyle=orthogonalEdgeStyle;rounded=0;orthogonalLoop=1;jettySize=auto;html=1;entryX=0.5;entryY=0;entryDx=0;entryDy=0;entryPerimeter=0;" edge="1" parent="1" source="66" target="75">
                    <mxGeometry relative="1" as="geometry"/>
                </mxCell>
                <mxCell id="77" value="yes" style="edgeLabel;html=1;align=center;verticalAlign=middle;resizable=0;points=[];" vertex="1" connectable="0" parent="76">
                    <mxGeometry x="-0.0476" y="1" relative="1" as="geometry">
                        <mxPoint as="offset"/>
                    </mxGeometry>
                </mxCell>
                <mxCell id="78" value="Not Found" style="strokeWidth=2;html=1;shape=mxgraph.flowchart.terminator;whiteSpace=wrap;" vertex="1" parent="1">
                    <mxGeometry x="2048" y="345" width="100" height="60" as="geometry"/>
                </mxCell>
                <mxCell id="79" style="edgeStyle=orthogonalEdgeStyle;rounded=0;orthogonalLoop=1;jettySize=auto;html=1;entryX=0;entryY=0.5;entryDx=0;entryDy=0;entryPerimeter=0;" edge="1" parent="1" source="75" target="78">
                    <mxGeometry relative="1" as="geometry"/>
                </mxCell>
                <mxCell id="80" value="no" style="edgeLabel;html=1;align=center;verticalAlign=middle;resizable=0;points=[];" vertex="1" connectable="0" parent="79">
                    <mxGeometry x="-0.019" y="3" relative="1" as="geometry">
                        <mxPoint as="offset"/>
                    </mxGeometry>
                </mxCell>
                <mxCell id="81" value="tries to add food to meal" style="strokeWidth=2;html=1;shape=mxgraph.flowchart.database;whiteSpace=wrap;" vertex="1" parent="1">
                    <mxGeometry x="1725" y="330" width="90" height="90" as="geometry"/>
                </mxCell>
                <mxCell id="82" style="edgeStyle=orthogonalEdgeStyle;rounded=0;orthogonalLoop=1;jettySize=auto;html=1;" edge="1" parent="1" source="86" target="88">
                    <mxGeometry relative="1" as="geometry">
                        <mxPoint x="1913" y="650" as="targetPoint"/>
                    </mxGeometry>
                </mxCell>
                <mxCell id="83" value="no" style="edgeLabel;html=1;align=center;verticalAlign=middle;resizable=0;points=[];" vertex="1" connectable="0" parent="82">
                    <mxGeometry x="-0.1254" y="2" relative="1" as="geometry">
                        <mxPoint as="offset"/>
                    </mxGeometry>
                </mxCell>
                <mxCell id="84" style="edgeStyle=orthogonalEdgeStyle;rounded=0;orthogonalLoop=1;jettySize=auto;html=1;exitX=0;exitY=0.5;exitDx=0;exitDy=0;exitPerimeter=0;" edge="1" parent="1" source="86" target="89">
                    <mxGeometry relative="1" as="geometry"/>
                </mxCell>
                <mxCell id="85" value="yes" style="edgeLabel;html=1;align=center;verticalAlign=middle;resizable=0;points=[];" vertex="1" connectable="0" parent="84">
                    <mxGeometry x="-0.1344" y="2" relative="1" as="geometry">
                        <mxPoint as="offset"/>
                    </mxGeometry>
                </mxCell>
                <mxCell id="86" value="any error" style="strokeWidth=2;html=1;shape=mxgraph.flowchart.decision;whiteSpace=wrap;" vertex="1" parent="1">
                    <mxGeometry x="1730" y="460" width="80" height="70" as="geometry"/>
                </mxCell>
                <mxCell id="87" style="edgeStyle=orthogonalEdgeStyle;rounded=0;orthogonalLoop=1;jettySize=auto;html=1;exitX=0.5;exitY=1;exitDx=0;exitDy=0;exitPerimeter=0;entryX=0.5;entryY=0;entryDx=0;entryDy=0;entryPerimeter=0;" edge="1" parent="1" source="81" target="86">
                    <mxGeometry relative="1" as="geometry"/>
                </mxCell>
                <mxCell id="88" value="Food added to meal" style="strokeWidth=2;html=1;shape=mxgraph.flowchart.terminator;whiteSpace=wrap;" vertex="1" parent="1">
                    <mxGeometry x="1878" y="465" width="100" height="60" as="geometry"/>
                </mxCell>
                <mxCell id="89" value="Food not added &lt;br&gt;to meal" style="strokeWidth=2;html=1;shape=mxgraph.flowchart.terminator;whiteSpace=wrap;" vertex="1" parent="1">
                    <mxGeometry x="1578" y="465" width="100" height="60" as="geometry"/>
                </mxCell>
                <mxCell id="90" value="&lt;span style=&quot;font-size: 18px;&quot;&gt;&lt;b&gt;Add Food to Meal Flow&lt;/b&gt;&lt;/span&gt;" style="text;html=1;strokeColor=none;fillColor=none;align=center;verticalAlign=middle;whiteSpace=wrap;rounded=0;" vertex="1" parent="1">
                    <mxGeometry x="1666" y="50" width="208" height="30" as="geometry"/>
                </mxCell>
                <mxCell id="91" value="" style="edgeStyle=none;html=1;" edge="1" parent="1" source="92" target="96">
                    <mxGeometry relative="1" as="geometry"/>
                </mxCell>
                <mxCell id="92" value="call for POST&lt;br&gt;exercise/add" style="rounded=1;whiteSpace=wrap;html=1;absoluteArcSize=1;arcSize=14;strokeWidth=2;" vertex="1" parent="1">
                    <mxGeometry x="96" y="910" width="126" height="60" as="geometry"/>
                </mxCell>
                <mxCell id="93" style="edgeStyle=orthogonalEdgeStyle;rounded=0;orthogonalLoop=1;jettySize=auto;html=1;exitX=1;exitY=0.5;exitDx=0;exitDy=0;exitPerimeter=0;" edge="1" parent="1" source="96" target="97">
                    <mxGeometry relative="1" as="geometry"/>
                </mxCell>
                <mxCell id="94" value="no" style="edgeLabel;html=1;align=center;verticalAlign=middle;resizable=0;points=[];" vertex="1" connectable="0" parent="93">
                    <mxGeometry x="0.081" y="1" relative="1" as="geometry">
                        <mxPoint x="-2" y="1" as="offset"/>
                    </mxGeometry>
                </mxCell>
                <mxCell id="95" value="yes" style="edgeStyle=none;html=1;" edge="1" parent="1" source="96" target="102">
                    <mxGeometry relative="1" as="geometry"/>
                </mxCell>
                <mxCell id="96" value="is user logged in" style="strokeWidth=2;html=1;shape=mxgraph.flowchart.decision;whiteSpace=wrap;" vertex="1" parent="1">
                    <mxGeometry x="89" y="1030" width="140" height="80" as="geometry"/>
                </mxCell>
                <mxCell id="97" value="Unathorized" style="strokeWidth=2;html=1;shape=mxgraph.flowchart.terminator;whiteSpace=wrap;" vertex="1" parent="1">
                    <mxGeometry x="289" y="1040" width="100" height="60" as="geometry"/>
                </mxCell>
                <mxCell id="98" value="" style="edgeStyle=none;html=1;" edge="1" parent="1" source="99" target="106">
                    <mxGeometry relative="1" as="geometry"/>
                </mxCell>
                <mxCell id="99" value="retrieves the exercise with the specified name" style="strokeWidth=2;html=1;shape=mxgraph.flowchart.database;whiteSpace=wrap;" vertex="1" parent="1">
                    <mxGeometry x="305" y="1140" width="141" height="100" as="geometry"/>
                </mxCell>
                <mxCell id="100" value="no" style="edgeStyle=none;html=1;" edge="1" parent="1" source="102" target="103">
                    <mxGeometry relative="1" as="geometry"/>
                </mxCell>
                <mxCell id="101" value="yes" style="edgeStyle=none;html=1;" edge="1" parent="1" source="102" target="99">
                    <mxGeometry relative="1" as="geometry"/>
                </mxCell>
                <mxCell id="102" value="are body params valid" style="strokeWidth=2;html=1;shape=mxgraph.flowchart.decision;whiteSpace=wrap;" vertex="1" parent="1">
                    <mxGeometry x="90" y="1150" width="140" height="80" as="geometry"/>
                </mxCell>
                <mxCell id="103" value="Bad Request" style="strokeWidth=2;html=1;shape=mxgraph.flowchart.terminator;whiteSpace=wrap;" vertex="1" parent="1">
                    <mxGeometry x="-70" y="1160" width="100" height="60" as="geometry"/>
                </mxCell>
                <mxCell id="104" value="no" style="edgeStyle=none;html=1;" edge="1" parent="1" source="106" target="107">
                    <mxGeometry relative="1" as="geometry"/>
                </mxCell>
                <mxCell id="105" value="yes" style="edgeStyle=none;html=1;" edge="1" parent="1" source="106" target="108">
                    <mxGeometry relative="1" as="geometry"/>
                </mxCell>
                <mxCell id="106" value="exercise found" style="strokeWidth=2;html=1;shape=mxgraph.flowchart.decision;whiteSpace=wrap;" vertex="1" parent="1">
                    <mxGeometry x="306" y="1310" width="140" height="80" as="geometry"/>
                </mxCell>
                <mxCell id="107" value="Exercise Not Found" style="strokeWidth=2;html=1;shape=mxgraph.flowchart.terminator;whiteSpace=wrap;" vertex="1" parent="1">
                    <mxGeometry x="109" y="1320" width="100" height="60" as="geometry"/>
                </mxCell>
                <mxCell id="108" value="Exercise Added" style="strokeWidth=2;html=1;shape=mxgraph.flowchart.terminator;whiteSpace=wrap;" vertex="1" parent="1">
                    <mxGeometry x="525" y="1320" width="100" height="60" as="geometry"/>
                </mxCell>
                <mxCell id="109" value="&lt;b&gt;&lt;font style=&quot;font-size: 18px;&quot;&gt;Add Exercise Flow&lt;/font&gt;&lt;/b&gt;" style="text;html=1;strokeColor=none;fillColor=none;align=center;verticalAlign=middle;whiteSpace=wrap;rounded=0;" vertex="1" parent="1">
                    <mxGeometry x="69" y="850" width="182" height="30" as="geometry"/>
                </mxCell>
                <mxCell id="110" value="call for GET&lt;br&gt;meals/" style="rounded=1;whiteSpace=wrap;html=1;absoluteArcSize=1;arcSize=14;strokeWidth=2;" vertex="1" parent="1">
                    <mxGeometry x="936" y="950" width="126" height="60" as="geometry"/>
                </mxCell>
                <mxCell id="111" style="edgeStyle=orthogonalEdgeStyle;rounded=0;orthogonalLoop=1;jettySize=auto;html=1;" edge="1" parent="1" source="114" target="116">
                    <mxGeometry relative="1" as="geometry"/>
                </mxCell>
                <mxCell id="112" value="no" style="edgeLabel;html=1;align=center;verticalAlign=middle;resizable=0;points=[];" vertex="1" connectable="0" parent="111">
                    <mxGeometry x="0.081" y="1" relative="1" as="geometry">
                        <mxPoint x="9" y="-1" as="offset"/>
                    </mxGeometry>
                </mxCell>
                <mxCell id="113" value="yes" style="edgeStyle=none;html=1;" edge="1" parent="1" source="114" target="122">
                    <mxGeometry relative="1" as="geometry"/>
                </mxCell>
                <mxCell id="114" value="is user logged in" style="strokeWidth=2;html=1;shape=mxgraph.flowchart.decision;whiteSpace=wrap;" vertex="1" parent="1">
                    <mxGeometry x="929" y="1060" width="140" height="80" as="geometry"/>
                </mxCell>
                <mxCell id="115" style="edgeStyle=orthogonalEdgeStyle;rounded=0;orthogonalLoop=1;jettySize=auto;html=1;entryX=0.5;entryY=0;entryDx=0;entryDy=0;entryPerimeter=0;" edge="1" parent="1" source="110" target="114">
                    <mxGeometry relative="1" as="geometry">
                        <mxPoint x="984" y="970" as="sourcePoint"/>
                    </mxGeometry>
                </mxCell>
                <mxCell id="116" value="Unathorized" style="strokeWidth=2;html=1;shape=mxgraph.flowchart.terminator;whiteSpace=wrap;" vertex="1" parent="1">
                    <mxGeometry x="762" y="1070" width="100" height="60" as="geometry"/>
                </mxCell>
                <mxCell id="117" value="call to retrieve the meals in a day for a user" style="strokeWidth=2;html=1;shape=mxgraph.flowchart.database;whiteSpace=wrap;" vertex="1" parent="1">
                    <mxGeometry x="1132" y="1190" width="90" height="110" as="geometry"/>
                </mxCell>
                <mxCell id="118" style="edgeStyle=orthogonalEdgeStyle;rounded=0;orthogonalLoop=1;jettySize=auto;html=1;exitX=0.5;exitY=1;exitDx=0;exitDy=0;exitPerimeter=0;entryX=0.5;entryY=0;entryDx=0;entryDy=0;entryPerimeter=0;" edge="1" parent="1" source="117" target="119">
                    <mxGeometry relative="1" as="geometry">
                        <mxPoint x="1132" y="1215" as="targetPoint"/>
                    </mxGeometry>
                </mxCell>
                <mxCell id="119" value="Meals returned with details" style="strokeWidth=2;html=1;shape=mxgraph.flowchart.terminator;whiteSpace=wrap;" vertex="1" parent="1">
                    <mxGeometry x="1127" y="1350" width="100" height="60" as="geometry"/>
                </mxCell>
                <mxCell id="120" value="no" style="edgeStyle=none;html=1;" edge="1" parent="1" source="122" target="123">
                    <mxGeometry relative="1" as="geometry"/>
                </mxCell>
                <mxCell id="121" value="yes" style="edgeStyle=none;html=1;" edge="1" parent="1" source="122" target="117">
                    <mxGeometry relative="1" as="geometry"/>
                </mxCell>
                <mxCell id="122" value="is date param valid" style="strokeWidth=2;html=1;shape=mxgraph.flowchart.decision;whiteSpace=wrap;" vertex="1" parent="1">
                    <mxGeometry x="1108" y="1060" width="140" height="80" as="geometry"/>
                </mxCell>
                <mxCell id="123" value="Bad Request" style="strokeWidth=2;html=1;shape=mxgraph.flowchart.terminator;whiteSpace=wrap;" vertex="1" parent="1">
                    <mxGeometry x="1322" y="1070" width="100" height="60" as="geometry"/>
                </mxCell>
                <mxCell id="124" value="&lt;span style=&quot;font-size: 18px;&quot;&gt;&lt;b&gt;Get Meals for Date&lt;/b&gt;&lt;/span&gt;" style="text;html=1;strokeColor=none;fillColor=none;align=center;verticalAlign=middle;whiteSpace=wrap;rounded=0;" vertex="1" parent="1">
                    <mxGeometry x="908" y="870" width="182" height="30" as="geometry"/>
                </mxCell>
                <mxCell id="125" value="call for GET&lt;br&gt;nutrition/remainingNutrition" style="rounded=1;whiteSpace=wrap;html=1;absoluteArcSize=1;arcSize=14;strokeWidth=2;" vertex="1" parent="1">
                    <mxGeometry x="1966" y="970" width="160" height="70" as="geometry"/>
                </mxCell>
                <mxCell id="126" style="edgeStyle=orthogonalEdgeStyle;rounded=0;orthogonalLoop=1;jettySize=auto;html=1;exitX=1;exitY=0.5;exitDx=0;exitDy=0;exitPerimeter=0;" edge="1" parent="1" source="129" target="131">
                    <mxGeometry relative="1" as="geometry"/>
                </mxCell>
                <mxCell id="127" value="no" style="edgeLabel;html=1;align=center;verticalAlign=middle;resizable=0;points=[];" vertex="1" connectable="0" parent="126">
                    <mxGeometry x="0.081" y="1" relative="1" as="geometry">
                        <mxPoint x="-2" y="1" as="offset"/>
                    </mxGeometry>
                </mxCell>
                <mxCell id="128" value="yes" style="edgeStyle=none;html=1;" edge="1" parent="1" source="129" target="134">
                    <mxGeometry relative="1" as="geometry"/>
                </mxCell>
                <mxCell id="129" value="is user logged in" style="strokeWidth=2;html=1;shape=mxgraph.flowchart.decision;whiteSpace=wrap;" vertex="1" parent="1">
                    <mxGeometry x="1976" y="1100" width="140" height="80" as="geometry"/>
                </mxCell>
                <mxCell id="130" style="edgeStyle=orthogonalEdgeStyle;rounded=0;orthogonalLoop=1;jettySize=auto;html=1;entryX=0.5;entryY=0;entryDx=0;entryDy=0;entryPerimeter=0;" edge="1" parent="1" source="125" target="129">
                    <mxGeometry relative="1" as="geometry">
                        <mxPoint x="1898" y="1140" as="sourcePoint"/>
                    </mxGeometry>
                </mxCell>
                <mxCell id="131" value="Unathorized" style="strokeWidth=2;html=1;shape=mxgraph.flowchart.terminator;whiteSpace=wrap;" vertex="1" parent="1">
                    <mxGeometry x="2176" y="1110" width="100" height="60" as="geometry"/>
                </mxCell>
                <mxCell id="132" value="no" style="edgeStyle=none;html=1;" edge="1" parent="1" source="134" target="135">
                    <mxGeometry relative="1" as="geometry"/>
                </mxCell>
                <mxCell id="133" value="yes" style="edgeStyle=none;html=1;exitX=0.5;exitY=1;exitDx=0;exitDy=0;exitPerimeter=0;entryX=0.5;entryY=0;entryDx=0;entryDy=0;" edge="1" parent="1" source="134" target="137">
                    <mxGeometry relative="1" as="geometry"/>
                </mxCell>
                <mxCell id="134" value="is date param valid" style="strokeWidth=2;html=1;shape=mxgraph.flowchart.decision;whiteSpace=wrap;" vertex="1" parent="1">
                    <mxGeometry x="1772" y="1100" width="140" height="80" as="geometry"/>
                </mxCell>
                <mxCell id="135" value="Bad Request" style="strokeWidth=2;html=1;shape=mxgraph.flowchart.terminator;whiteSpace=wrap;" vertex="1" parent="1">
                    <mxGeometry x="1620" y="1110" width="100" height="60" as="geometry"/>
                </mxCell>
                <mxCell id="136" value="" style="edgeStyle=none;html=1;" edge="1" parent="1" source="137" target="139">
                    <mxGeometry relative="1" as="geometry"/>
                </mxCell>
                <mxCell id="137" value="calculates the user &lt;br&gt;ideal daily nutrition&amp;nbsp;" style="rounded=1;whiteSpace=wrap;html=1;absoluteArcSize=1;arcSize=14;strokeWidth=2;" vertex="1" parent="1">
                    <mxGeometry x="1763" y="1240" width="160" height="70" as="geometry"/>
                </mxCell>
                <mxCell id="138" value="" style="edgeStyle=none;html=1;" edge="1" parent="1" source="139" target="142">
                    <mxGeometry relative="1" as="geometry"/>
                </mxCell>
                <mxCell id="139" value="retrieves user details" style="strokeWidth=2;html=1;shape=mxgraph.flowchart.database;whiteSpace=wrap;" vertex="1" parent="1">
                    <mxGeometry x="1787" y="1360" width="106" height="90" as="geometry"/>
                </mxCell>
                <mxCell id="140" value="no" style="edgeStyle=none;html=1;" edge="1" parent="1" source="142" target="143">
                    <mxGeometry relative="1" as="geometry"/>
                </mxCell>
                <mxCell id="141" value="yes" style="edgeStyle=none;html=1;entryX=0.5;entryY=0;entryDx=0;entryDy=0;" edge="1" parent="1" source="142" target="145">
                    <mxGeometry relative="1" as="geometry"/>
                </mxCell>
                <mxCell id="142" value="details added" style="strokeWidth=2;html=1;shape=mxgraph.flowchart.decision;whiteSpace=wrap;" vertex="1" parent="1">
                    <mxGeometry x="1966" y="1355" width="100" height="100" as="geometry"/>
                </mxCell>
                <mxCell id="143" value="User Details not found" style="strokeWidth=2;html=1;shape=mxgraph.flowchart.terminator;whiteSpace=wrap;" vertex="1" parent="1">
                    <mxGeometry x="2126" y="1375" width="100" height="60" as="geometry"/>
                </mxCell>
                <mxCell id="144" style="edgeStyle=none;html=1;" edge="1" parent="1" source="145" target="147">
                    <mxGeometry relative="1" as="geometry"/>
                </mxCell>
                <mxCell id="145" value="calculates the nutrition for that day" style="rounded=1;whiteSpace=wrap;html=1;absoluteArcSize=1;arcSize=14;strokeWidth=2;" vertex="1" parent="1">
                    <mxGeometry x="1936" y="1510" width="160" height="70" as="geometry"/>
                </mxCell>
                <mxCell id="146" value="" style="edgeStyle=none;html=1;" edge="1" parent="1" source="147" target="149">
                    <mxGeometry relative="1" as="geometry"/>
                </mxCell>
                <mxCell id="147" value="retrieves the meals for that day" style="strokeWidth=2;html=1;shape=mxgraph.flowchart.database;whiteSpace=wrap;" vertex="1" parent="1">
                    <mxGeometry x="1951" y="1630" width="130" height="90" as="geometry"/>
                </mxCell>
                <mxCell id="148" value="" style="edgeStyle=none;html=1;" edge="1" parent="1" source="149" target="151">
                    <mxGeometry relative="1" as="geometry"/>
                </mxCell>
                <mxCell id="149" value="calculates the calories burnt in that day" style="rounded=1;whiteSpace=wrap;html=1;absoluteArcSize=1;arcSize=14;strokeWidth=2;" vertex="1" parent="1">
                    <mxGeometry x="1936" y="1770" width="160" height="70" as="geometry"/>
                </mxCell>
                <mxCell id="150" value="" style="edgeStyle=none;html=1;" edge="1" parent="1" source="151" target="152">
                    <mxGeometry relative="1" as="geometry"/>
                </mxCell>
                <mxCell id="151" value="retrieves the exercise for that day" style="strokeWidth=2;html=1;shape=mxgraph.flowchart.database;whiteSpace=wrap;" vertex="1" parent="1">
                    <mxGeometry x="1948" y="1900" width="130" height="90" as="geometry"/>
                </mxCell>
                <mxCell id="152" value="Returns the remaining nutrition" style="strokeWidth=2;html=1;shape=mxgraph.flowchart.terminator;whiteSpace=wrap;" vertex="1" parent="1">
                    <mxGeometry x="1947" y="2030" width="131" height="60" as="geometry"/>
                </mxCell>
                <mxCell id="153" value="&lt;span style=&quot;font-size: 18px;&quot;&gt;&lt;b&gt;Get Remaining Nutrition for Day&lt;/b&gt;&lt;/span&gt;" style="text;html=1;strokeColor=none;fillColor=none;align=center;verticalAlign=middle;whiteSpace=wrap;rounded=0;" vertex="1" parent="1">
                    <mxGeometry x="1951" y="880" width="182" height="30" as="geometry"/>
                </mxCell>
            </root>
        </mxGraphModel>
    </diagram>
</mxfile>